<svg xmlns="http://www.w3.org/2000/svg" viewBox="0 0 512.04 416.11" id="heart"><path d="M256,416.11a10,10,0,0,1-4.74-1.2c-2.33-1.25-57.74-31.25-116.48-78C100.12,309.25,71.6,281.54,50,254.51c-27.5-34.45-43.84-68.06-48.56-99.89C-4.95,111.4,9.71,71.46,45,35.91a122.63,122.63,0,0,1,173.39,0L256,73.48l37.63-37.6a122.63,122.63,0,0,1,173.38,0c35.33,35.55,50,75.49,43.57,118.71-4.73,31.83-21.06,65.44-48.56,99.89-21.57,27-50.09,54.74-84.77,82.36-58.74,46.79-114.15,76.79-116.48,78A10,10,0,0,1,256,416.11ZM131.74,20A101.47,101.47,0,0,0,59.22,50c-30.63,30.83-43.41,65-38,101.66,17,115,202.54,224.73,234.77,243,32.22-18.27,217.72-128,234.77-243,5.43-36.62-7.34-70.83-38-101.66a102.64,102.64,0,0,0-145.06,0L263.05,94.7a10,10,0,0,1-14.14,0L204.28,50A101.9,101.9,0,0,0,131.74,20Z" data-name="Layer 2" fill="#de9d9b" class="color000000 svgShape"></path></svg>