<svg xmlns="http://www.w3.org/2000/svg" viewBox="0 0 511.55 414.16" id="heart"><path d="M255.78,414.16a5,5,0,0,1-2.37-.6,897.55,897.55,0,0,1-118-79.11c-35-27.93-63.84-55.93-85.59-83.2C22.42,216.82,6.12,183.37,1.43,151.82c-6.29-42.39,8.16-81.66,43-116.72a119.75,119.75,0,0,1,169.39,0l42,42,42-42a119.76,119.76,0,0,1,169.4,0c34.79,35.06,49.24,74.33,42.95,116.72-4.69,31.55-21,65-48.43,99.43-21.75,27.27-50.54,55.27-85.59,83.2a897.09,897.09,0,0,1-118,79.11A5,5,0,0,1,255.78,414.16ZM129.09,10A108.52,108.52,0,0,0,51.48,42.15C19,74.84,5.52,111.24,11.32,150.34c10.07,67.81,76.38,133.24,130.24,176.2a898,898,0,0,0,114.22,76.91A898.18,898.18,0,0,0,370,326.54c53.86-43,120.17-108.39,130.24-176.2,5.8-39.1-7.71-75.5-40.16-108.19a109.74,109.74,0,0,0-155.22,0L259.27,87.74a5,5,0,0,1-3.53,1.46h0a5,5,0,0,1-3.54-1.47L206.71,42.16A109,109,0,0,0,129.09,10Z" data-name="Layer 2" fill="#de9d9b" class="color000000 svgShape"></path></svg>