<svg xmlns="http://www.w3.org/2000/svg" viewBox="0 0 64 64" id="PetLover"><path d="M56.63,12.57a15,15,0,0,0-21.12,0L32,16.08l-3.51-3.51A14.94,14.94,0,1,0,7.37,33.7L31.29,57.62a1,1,0,0,0,.71.3,1,1,0,0,0,.71-.3L56.63,33.7A15,15,0,0,0,56.63,12.57ZM33.77,23.21c1.69-5.72,7-3.34,5.48,2.27h0C37.56,31.2,32.23,28.83,33.77,23.21Zm-7.6-3.09c4.18-1.58,5.8,7.18,2.7,8.45C24.68,30.15,23.07,21.39,26.17,20.12ZM22.05,33.91c-3.76.05-6.15-7-1.88-7.85C24.27,25.47,26.91,33.56,22.05,33.91Zm10,7.83c-3,.1-8.36-1-8.2-3.88.4-10.52,16-10.52,16.39,0C40.21,40.73,35.8,41.74,32,41.74Zm12.53-9c-4.24,3.78-7.17-2-3.69-5.45,1.44-1.51,3.78-1.74,4.84.1C46.54,28.85,46,31.2,44.55,32.7Z" data-name="Layer 3" fill="#bcd5ac" class="color000000 svgShape"></path></svg>